<svg width="57" height="56" viewBox="0 0 57 56" fill="none" xmlns="http://www.w3.org/2000/svg">
<rect x="0.5" width="56" height="56" rx="16" fill="url(#paint0_linear_6_12306)"/>
<path d="M31.7551 44.8H31.2914C30.4875 44.8 29.7146 44.7228 28.9725 44.5685C28.2305 44.4143 27.5658 44.1366 26.9783 43.7355C26.4218 43.3344 25.9581 42.779 25.5871 42.0694C25.247 41.3597 25.0769 40.4341 25.0769 39.2925V11.2H25.8189C26.561 11.2 27.2875 11.2925 27.9986 11.4776C28.7097 11.6319 29.3436 11.925 29.9001 12.357C30.4566 12.7581 30.9049 13.3134 31.245 14.0231C31.5851 14.7327 31.7551 15.6429 31.7551 16.7537V44.8ZM15.0596 15.7818C15.0596 15.2572 15.1523 14.7327 15.3378 14.2082C15.5233 13.6837 15.8171 13.2055 16.219 12.7735C16.6209 12.3415 17.1156 12.0022 17.703 11.7553C18.2905 11.4776 18.9861 11.3388 19.79 11.3388C20.6248 11.3388 21.3359 11.4931 21.9233 11.8016C22.5107 12.0793 22.9745 12.4341 23.3146 12.8661C23.6856 13.2672 23.9484 13.7146 24.103 14.2082C24.2885 14.671 24.3813 15.0876 24.3813 15.4578C24.3813 15.7046 24.3658 15.936 24.3349 16.152C24.3349 16.3371 24.2885 16.5531 24.1958 16.8C23.7629 16.4297 23.2682 16.2446 22.7117 16.2446C22.2479 16.2446 21.8615 16.3988 21.5523 16.7074C21.2431 16.9851 21.0885 17.417 21.0885 18.0033V20.271C20.8412 20.3327 20.532 20.3636 20.161 20.3636C19.7281 20.3636 19.218 20.3173 18.6306 20.2247C18.0431 20.1013 17.4866 19.8699 16.961 19.5305C16.4354 19.1911 15.9871 18.7283 15.6161 18.1421C15.2451 17.5559 15.0596 16.7691 15.0596 15.7818ZM41.8188 15.7818C41.8188 16.7691 41.6333 17.5559 41.2623 18.1421C40.8913 18.7283 40.443 19.1911 39.9174 19.5305C39.3918 19.8699 38.8353 20.1013 38.2479 20.2247C37.6604 20.3173 37.1503 20.3636 36.7174 20.3636C36.3464 20.3636 36.0372 20.3327 35.7899 20.271V18.1421C35.7899 17.4942 35.6353 17.0159 35.3261 16.7074C35.017 16.3988 34.6305 16.2446 34.1667 16.2446C33.5793 16.2446 33.0846 16.4297 32.6827 16.8C32.5899 16.5531 32.5281 16.3371 32.4972 16.152C32.4972 15.936 32.4972 15.7046 32.4972 15.4578C32.4972 15.0876 32.5745 14.671 32.729 14.2082C32.9145 13.7146 33.1773 13.2672 33.5174 12.8661C33.8885 12.4341 34.3522 12.0793 34.9087 11.8016C35.4962 11.4931 36.1918 11.3388 36.9957 11.3388C37.8305 11.3388 38.5416 11.4776 39.129 11.7553C39.7474 12.033 40.242 12.3878 40.6131 12.8198C41.015 13.2209 41.3087 13.6991 41.4942 14.2545C41.7106 14.779 41.8188 15.2881 41.8188 15.7818Z" fill="white"/>
<defs>
<linearGradient id="paint0_linear_6_12306" x1="0.500002" y1="43.3901" x2="72.9497" y2="29.3573" gradientUnits="userSpaceOnUse">
<stop stop-color="#2754C8"/>
<stop offset="1" stop-color="#110F72"/>
</linearGradient>
</defs>
</svg>
